<svg xmlns="http://www.w3.org/2000/svg" viewBox="0 0 64 64" width="512px" height="512px"><ellipse cx="32" cy="61" opacity=".3" rx="20.125" ry="3"/><path fill="#ffce29" d="M48,52H17c-2.209,0-4-1.791-4-4V8c0-2.209,1.791-4,4-4h21.311c1.06,0,2.077,0.421,2.827,1.17 l9.689,9.68C51.578,15.601,52,16.619,52,17.68V48C52,50.209,50.209,52,48,52z"/><path fill="#fff" d="M13,8v18c2.762,0,5-2.238,5-5V9.652c0-0.42,0.264-0.795,0.66-0.934 C20.605,8.033,22,6.18,22,4h-5C14.791,4,13,5.791,13,8z" opacity=".3"/><path d="M52,48V37c-2.762,0-5,2.238-5,5v4c0,0.552-0.448,1-1,1h-9c-2.762,0-5,2.238-5,5h16 C50.209,52,52,50.209,52,48z" opacity=".15"/><line x1="16.5" x2="16.5" y1="9.5" y2="16.5" fill="none" stroke="#fff" stroke-linecap="round" stroke-linejoin="round" stroke-miterlimit="10" stroke-width="3"/><path fill="#bd6300" d="M50.827,14.851l-9.689-9.68C40.806,4.839,40.417,4.584,40,4.389V12c0,2.209,1.791,4,4,4h7.616 C51.42,15.579,51.162,15.185,50.827,14.851z"/><path fill="#bd6300" d="M22.114,37.012c-0.634,0-1.268-0.069-1.902-0.208c-0.634-0.138-1.184-0.341-1.649-0.609 c-0.277-0.149-0.451-0.348-0.52-0.601s-0.054-0.498,0.045-0.736c0.099-0.237,0.258-0.405,0.475-0.504 c0.218-0.099,0.48-0.075,0.787,0.074c0.397,0.229,0.838,0.397,1.323,0.505c0.485,0.109,0.966,0.163,1.441,0.163 c0.713,0,1.226-0.111,1.538-0.334c0.312-0.224,0.468-0.503,0.468-0.84c0-0.287-0.109-0.515-0.326-0.683 c-0.219-0.168-0.6-0.312-1.145-0.43l-1.678-0.357c-1.872-0.397-2.809-1.368-2.809-2.913c0-0.663,0.179-1.245,0.536-1.746 c0.357-0.499,0.854-0.889,1.493-1.166c0.638-0.277,1.378-0.416,2.221-0.416c0.554,0,1.099,0.067,1.634,0.201 c0.536,0.133,1.006,0.329,1.412,0.586c0.247,0.149,0.401,0.342,0.461,0.579c0.059,0.238,0.042,0.466-0.052,0.684 c-0.094,0.218-0.253,0.371-0.475,0.459c-0.224,0.089-0.498,0.056-0.825-0.104c-0.328-0.168-0.675-0.291-1.041-0.371 c-0.366-0.079-0.742-0.118-1.129-0.118c-0.624,0-1.106,0.121-1.449,0.364c-0.341,0.243-0.513,0.557-0.513,0.943 c0,0.288,0.104,0.52,0.313,0.699c0.208,0.178,0.569,0.322,1.085,0.43l1.678,0.357c1.921,0.416,2.883,1.358,2.883,2.823 c0,0.653-0.177,1.226-0.527,1.716c-0.352,0.491-0.848,0.872-1.486,1.144C23.741,36.875,22.986,37.012,22.114,37.012z"/><path fill="#bd6300" d="M36.905,38.349c0.158,0.258,0.218,0.493,0.178,0.706c-0.039,0.213-0.138,0.391-0.296,0.534 c-0.158,0.144-0.349,0.236-0.572,0.274c-0.224,0.04-0.446,0.018-0.669-0.067c-0.224-0.085-0.415-0.245-0.572-0.482l-1.056-1.724 c-0.248-0.386-0.673-0.579-1.278-0.579c-1.03-0.01-1.931-0.237-2.704-0.683s-1.375-1.075-1.805-1.887 c-0.43-0.811-0.647-1.758-0.647-2.838c0-1.089,0.216-2.037,0.647-2.845c0.43-0.806,1.033-1.434,1.805-1.879 c0.773-0.446,1.678-0.669,2.719-0.669c1.04,0,1.948,0.222,2.725,0.669c0.777,0.445,1.382,1.072,1.814,1.879 c0.43,0.808,0.646,1.751,0.646,2.831c0,1.139-0.237,2.127-0.713,2.965c-0.475,0.837-1.124,1.468-1.945,1.893 c0.435,0.129,0.811,0.446,1.128,0.952L36.905,38.349z M32.656,35.05c0.871,0,1.553-0.305,2.042-0.914 c0.491-0.608,0.735-1.453,0.735-2.533c0-1.089-0.242-1.933-0.728-2.533c-0.485-0.599-1.168-0.898-2.049-0.898 c-0.862,0-1.538,0.3-2.029,0.898c-0.49,0.6-0.735,1.444-0.735,2.533c0,1.08,0.245,1.925,0.735,2.533 C31.118,34.746,31.794,35.05,32.656,35.05z"/><path fill="#bd6300" d="M40.893,36.848c-0.386,0-0.678-0.102-0.877-0.305c-0.198-0.203-0.297-0.492-0.297-0.869v-8.157 c0-0.376,0.099-0.666,0.297-0.869c0.198-0.203,0.485-0.305,0.862-0.305c0.763,0,1.144,0.392,1.144,1.174v7.384h3.982 c0.664,0,0.996,0.323,0.996,0.966c0,0.654-0.333,0.981-0.996,0.981H40.893z"/></svg>